<svg width="36" height="36" viewBox="0 0 36 36" fill="none" xmlns="http://www.w3.org/2000/svg">
<g id="tabler-icon-settings-automation">
<path id="Vector" d="M15.4875 6.4755L16.4592 6.71179L16.4593 6.71126L15.4875 6.4755ZM20.5125 6.4755L21.4844 6.24002L21.4843 6.23974L20.5125 6.4755ZM24.372 8.0745L23.8517 7.22049L23.8514 7.22069L24.372 8.0745ZM27.927 11.6295L28.781 12.1497L28.7812 12.1495L27.927 11.6295ZM29.5245 15.4875L29.2882 16.4592L29.2887 16.4593L29.5245 15.4875ZM29.5245 20.5125L29.76 21.4844L29.7603 21.4843L29.5245 20.5125ZM27.9255 24.372L28.7795 23.8517L28.7793 23.8514L27.9255 24.372ZM24.3705 27.927L23.8503 28.781L23.8505 28.7812L24.3705 27.927ZM20.5125 29.5245L19.5408 29.2882L19.5407 29.2887L20.5125 29.5245ZM15.4875 29.5245L14.5156 29.76L14.5157 29.7603L15.4875 29.5245ZM11.628 27.9255L12.1483 28.7795L12.1486 28.7793L11.628 27.9255ZM8.073 24.3705L7.21895 23.8503L7.21884 23.8505L8.073 24.3705ZM6.4755 20.5125L6.7118 19.5408L6.71126 19.5407L6.4755 20.5125ZM6.4755 15.4875L6.24002 14.5156L6.23974 14.5157L6.4755 15.4875ZM8.0745 11.628L7.22049 12.1483L7.22069 12.1486L8.0745 11.628ZM11.6295 8.073L11.1095 8.92716L11.11 8.92746L11.6295 8.073ZM15 13.5L15.5145 12.6425C15.2056 12.4571 14.8208 12.4523 14.5073 12.6298C14.1938 12.8073 14 13.1397 14 13.5H15ZM15 22.5H14C14 22.8603 14.1938 23.1927 14.5073 23.3702C14.8208 23.5477 15.2056 23.5429 15.5145 23.3575L15 22.5ZM22.5 18L23.0145 18.8575C23.3157 18.6768 23.5 18.3513 23.5 18C23.5 17.6487 23.3157 17.3232 23.0145 17.1425L22.5 18ZM16.4593 6.71126C16.8511 5.09625 19.1489 5.09625 19.5407 6.71126L21.4843 6.23974C20.5981 2.58675 15.4019 2.58675 14.5157 6.23974L16.4593 6.71126ZM19.5406 6.71098C19.6736 7.2597 19.9342 7.76927 20.3013 8.19822L21.8208 6.89778C21.6585 6.70807 21.5432 6.4827 21.4844 6.24002L19.5406 6.71098ZM20.3013 8.19822C20.6684 8.62716 21.1316 8.96337 21.6532 9.17947L22.4187 7.33177C22.188 7.23619 21.9832 7.0875 21.8208 6.89778L20.3013 8.19822ZM21.6532 9.17947C22.1748 9.39557 22.7401 9.48545 23.303 9.44181L23.1484 7.4478C22.8994 7.4671 22.6494 7.42734 22.4187 7.33177L21.6532 9.17947ZM23.303 9.44181C23.8659 9.39817 24.4105 9.22223 24.8926 8.92831L23.8514 7.22069C23.6382 7.35068 23.3973 7.42849 23.1484 7.4478L23.303 9.44181ZM24.8923 8.92851C26.3115 8.06388 27.9379 9.68864 27.0728 11.1095L28.7812 12.1495C30.7361 8.93836 27.0615 5.26512 23.8517 7.22049L24.8923 8.92851ZM27.073 11.1093C26.7795 11.5912 26.6038 12.1355 26.5603 12.698L28.5543 12.8523C28.5735 12.6035 28.6512 12.3628 28.781 12.1497L27.073 11.1093ZM26.5603 12.698C26.5167 13.2605 26.6065 13.8254 26.8224 14.3466L28.6702 13.5815C28.5748 13.3509 28.535 13.1011 28.5543 12.8523L26.5603 12.698ZM26.8224 14.3466C27.0382 14.8679 27.374 15.3309 27.8025 15.698L29.1037 14.1792C28.9142 14.0168 28.7657 13.812 28.6702 13.5815L26.8224 14.3466ZM27.8025 15.698C28.2309 16.0651 28.74 16.3259 29.2882 16.4592L29.7608 14.5158C29.5183 14.4569 29.2932 14.3415 29.1037 14.1792L27.8025 15.698ZM29.2887 16.4593C30.9038 16.8511 30.9038 19.1489 29.2887 19.5407L29.7603 21.4843C33.4132 20.5981 33.4132 15.4019 29.7603 14.5157L29.2887 16.4593ZM29.289 19.5406C28.7403 19.6736 28.2307 19.9342 27.8018 20.3013L29.1022 21.8208C29.2919 21.6585 29.5173 21.5432 29.76 21.4844L29.289 19.5406ZM27.8018 20.3013C27.3728 20.6684 27.0366 21.1316 26.8205 21.6532L28.6682 22.4187C28.7638 22.188 28.9125 21.9832 29.1022 21.8208L27.8018 20.3013ZM26.8205 21.6532C26.6044 22.1748 26.5145 22.7401 26.5582 23.303L28.5522 23.1484C28.5329 22.8994 28.5727 22.6494 28.6682 22.4187L26.8205 21.6532ZM26.5582 23.303C26.6018 23.8659 26.7778 24.4105 27.0717 24.8926L28.7793 23.8514C28.6493 23.6382 28.5715 23.3973 28.5522 23.1484L26.5582 23.303ZM27.0715 24.8923C27.9361 26.3115 26.3114 27.9379 24.8905 27.0728L23.8505 28.7812C27.0616 30.7361 30.7349 27.0615 28.7795 23.8517L27.0715 24.8923ZM24.8907 27.073C24.4088 26.7795 23.8645 26.6038 23.302 26.5603L23.1477 28.5543C23.3965 28.5735 23.6372 28.6512 23.8503 28.781L24.8907 27.073ZM23.302 26.5603C22.7395 26.5167 22.1746 26.6065 21.6534 26.8224L22.4185 28.6702C22.6491 28.5748 22.8989 28.535 23.1477 28.5543L23.302 26.5603ZM21.6534 26.8224C21.1321 27.0382 20.6691 27.374 20.302 27.8025L21.8208 29.1037C21.9832 28.9142 22.188 28.7657 22.4185 28.6702L21.6534 26.8224ZM20.302 27.8025C19.9349 28.2309 19.6741 28.74 19.5408 29.2882L21.4842 29.7608C21.5431 29.5183 21.6585 29.2932 21.8208 29.1037L20.302 27.8025ZM19.5407 29.2887C19.1489 30.9038 16.8511 30.9038 16.4593 29.2887L14.5157 29.7603C15.4019 33.4132 20.5981 33.4132 21.4843 29.7603L19.5407 29.2887ZM16.4594 29.289C16.3264 28.7403 16.0658 28.2307 15.6987 27.8018L14.1792 29.1022C14.3415 29.2919 14.4568 29.5173 14.5156 29.76L16.4594 29.289ZM15.6987 27.8018C15.3316 27.3728 14.8684 27.0366 14.3468 26.8205L13.5813 28.6682C13.812 28.7638 14.0168 28.9125 14.1792 29.1022L15.6987 27.8018ZM14.3468 26.8205C13.8252 26.6044 13.2599 26.5145 12.697 26.5582L12.8516 28.5522C13.1006 28.5329 13.3506 28.5727 13.5813 28.6682L14.3468 26.8205ZM12.697 26.5582C12.1341 26.6018 11.5895 26.7778 11.1074 27.0717L12.1486 28.7793C12.3618 28.6493 12.6027 28.5715 12.8516 28.5522L12.697 26.5582ZM11.1077 27.0715C9.68846 27.9361 8.06213 26.3114 8.92716 24.8905L7.21884 23.8505C5.26387 27.0616 8.93854 30.7349 12.1483 28.7795L11.1077 27.0715ZM8.92705 24.8907C9.22054 24.4088 9.3962 23.8645 9.43974 23.302L7.44571 23.1477C7.42645 23.3965 7.34876 23.6372 7.21895 23.8503L8.92705 24.8907ZM9.43974 23.302C9.48329 22.7395 9.39348 22.1746 9.17763 21.6534L7.32978 22.4185C7.42525 22.6491 7.46497 22.8989 7.44571 23.1477L9.43974 23.302ZM9.17763 21.6534C8.96178 21.1321 8.62598 20.6691 8.19752 20.302L6.8963 21.8208C7.0858 21.9832 7.23432 22.188 7.32978 22.4185L9.17763 21.6534ZM8.19752 20.302C7.76905 19.9349 7.26002 19.6741 6.7118 19.5408L6.2392 21.4842C6.48167 21.5431 6.7068 21.6585 6.8963 21.8208L8.19752 20.302ZM6.71126 19.5407C5.09625 19.1489 5.09625 16.8511 6.71126 16.4593L6.23974 14.5157C2.58675 15.4019 2.58675 20.5981 6.23974 21.4843L6.71126 19.5407ZM6.71098 16.4594C7.2597 16.3264 7.76927 16.0658 8.19822 15.6987L6.89778 14.1792C6.70807 14.3415 6.4827 14.4568 6.24002 14.5156L6.71098 16.4594ZM8.19822 15.6987C8.62716 15.3316 8.96337 14.8684 9.17947 14.3468L7.33177 13.5813C7.23619 13.812 7.0875 14.0168 6.89778 14.1792L8.19822 15.6987ZM9.17947 14.3468C9.39557 13.8252 9.48545 13.2599 9.44181 12.697L7.4478 12.8516C7.4671 13.1006 7.42734 13.3506 7.33177 13.5813L9.17947 14.3468ZM9.44181 12.697C9.39817 12.1341 9.22223 11.5895 8.92831 11.1074L7.22069 12.1486C7.35068 12.3618 7.42849 12.6027 7.4478 12.8516L9.44181 12.697ZM8.92851 11.1077C8.06388 9.68846 9.68864 8.06213 11.1095 8.92716L12.1495 7.21884C8.93836 5.26387 5.26512 8.93854 7.22049 12.1483L8.92851 11.1077ZM11.11 8.92746C13.188 10.1909 15.8852 9.07203 16.4592 6.71179L14.5158 6.23921C14.2618 7.28397 13.071 7.77912 12.149 7.21854L11.11 8.92746ZM14 13.5V22.5H16V13.5H14ZM15.5145 23.3575L23.0145 18.8575L21.9855 17.1425L14.4855 21.6425L15.5145 23.3575ZM23.0145 17.1425L15.5145 12.6425L14.4855 14.3575L21.9855 18.8575L23.0145 17.1425Z" fill="url(#paint0_linear_2143_5455)"/>
</g>
<defs>
<linearGradient id="paint0_linear_2143_5455" x1="4.5" y1="4.5" x2="31.5" y2="4.5" gradientUnits="userSpaceOnUse">
<stop stop-color="#E9357B"/>
<stop offset="1" stop-color="#FFB2D0"/>
</linearGradient>
</defs>
</svg>
